# xmcd
#
# Track frame offsets: 
#        150
#        13095
#        27580
#        38565
#        53452
#        67075
#        80845
#        96245
#        108382
#        123720
#        136157
#        150585
#        164190
#        176247
#        189620
#        202545
#        216607
#        230812
#        243152
#        256820
#        271327
#        283747
#        297895
#        312130
#        322995
#        333952
#
# Disc length: 4624 seconds
#
# Revision: 2
# Processed by: cddbd v1.5.2PL0 Copyright (c) Steve Scherf et al.
# Submitted via: ExactAudioCopy v0.99pb4
#
DISCID=84120e1a
DTITLE=Various Artist - American Yodeling 1911-1946
DYEAR=1998
DGENRE=Country
TTITLE0=J.E. Mainer's Mountaineers - Yodeling Mountaineer
TTITLE1=Callahan Brothers - Gonna Quit My Rowdy Ways
TTITLE2=The De Zurik Sisters - The Arizona Yodeler
TTITLE3=The Carter Family - My Clinch Mountain Home
TTITLE4=Sons of the Pioneers - The Devil's Great Grandson
TTITLE5=Roy Rogers - Cowboy Night Herd Song
TTITLE6=Tampa Red - Worried Devil Blues
TTITLE7=Girls of the Golden West - Will There Be Any Yodelers in Heave
TTITLE7=n?
TTITLE8=Cliff Carlisle - The Nasty Swing
TTITLE9=Three Tobacco Tags - Yodeling Mule
TTITLE10=Lottie Kimbrough and Winston Holmes - Lost Lover Blues
TTITLE11=Goebel Reeves (The Texas Drifter) - The Yodelin' Teacher
TTITLE12=The Delmore Brothers - Lonesome Yodel Blues
TTITLE13=The Guidry Brothers - La Valse De Marriage
TTITLE14=Emmett Miller - Lovesick Blues
TTITLE15=Patsy Montana - I Wanna Be a Cowboy's Sweetheart
TTITLE16=Wilf Carter (Montana Slim) - My Swiss Moonlight Lullaby
TTITLE17=Bill Monroe and His Blue Grass Boys - Mule Skinner Blues
TTITLE18=Leake County Revelers - Rockin' Yodel
TTITLE19=Mississippi Sheiks - Yodeling Fiddling Blues
TTITLE20=Jimmy Rodgers - Standin' on the Corner (Blue Yodel No. 9)
TTITLE21=Riley Puckett - Sauerkraut
TTITLE22=Rambling Red Foley - Yodeling Radio Joe
TTITLE23=Bob Wills and His Texas Playboys - Blue Yodel No. 1
TTITLE24=Rex Griffin - You Gotta Go to Work
TTITLE25=George P. Watson - Sleep, Baby, Sleep
EXTD=\n
EXTT0=
EXTT1=
EXTT2=
EXTT3=
EXTT4=
EXTT5=
EXTT6=
EXTT7=
EXTT8=
EXTT9=
EXTT10=
EXTT11=
EXTT12=
EXTT13=
EXTT14=
EXTT15=
EXTT16=
EXTT17=
EXTT18=
EXTT19=
EXTT20=
EXTT21=
EXTT22=
EXTT23=
EXTT24=
EXTT25=
PLAYORDER=
